<?xml version="1.0" encoding="UTF-8"?>

<svg version="1.2" baseProfile="tiny" viewBox="0 0 21000 29700" preserveAspectRatio="xMidYMid" fill-rule="evenodd" clip-path="url(#presentation_clip_path)" stroke-width="28.222" stroke-linejoin="round" xmlns="http://www.w3.org/2000/svg" xmlns:xlink="http://www.w3.org/1999/xlink" xmlns:draw="urn:oasis:names:tc:opendocument:xmlns:drawing:1.0" xmlns:presentation="urn:oasis:names:tc:opendocument:xmlns:presentation:1.0" xmlns:smil="urn:oasis:names:tc:opendocument:xmlns:smil-compatible:1.0" xmlns:anim="urn:oasis:names:tc:opendocument:xmlns:animation:1.0" xml:space="preserve">
 <defs>
  <clipPath id="presentation_clip_path" clipPathUnits="userSpaceOnUse">
   <rect x="0" y="0" width="21000" height="29700"/>
  </clipPath>
 </defs>
 <g id="id2" class="Master_Slide" clip-path="url(#presentation_clip_path)">
  <g id="bg-id2" visibility="visible" class="Background">
   <rect fill="none" stroke="none" x="0" y="0" width="21000" height="29700"/>
  </g>
  <g id="bo-id2" visibility="visible" class="BackgroundObjects"/>
 </g>
 <g id="id1" class="Slide" visibility="visible" clip-path="url(#presentation_clip_path)">
  <g class="Group">
   <g class="com.sun.star.drawing.ClosedBezierShape">
    <g>
     <path fill="rgb(0,0,0)" stroke="none" d="M 5492,1765 C 5498,1659 5514,1555 5571,1451 5623,1451 5675,1451 5728,1451 5778,1555 5800,1660 5806,1765 5808,1802 5807,1866 5818,1900 5956,1915 6087,1949 6208,1999 6234,1973 6263,1921 6282,1892 6340,1804 6406,1721 6507,1660 6552,1686 6597,1712 6642,1738 6634,1854 6601,1956 6553,2049 6538,2079 6509,2128 6499,2162 6610,2243 6707,2341 6789,2452 6823,2441 6872,2412 6902,2397 6996,2349 7094,2311 7213,2308 7239,2354 7265,2399 7291,2444 7226,2540 7146,2611 7059,2669 7029,2688 6977,2717 6952,2742 7002,2863 7036,2994 7051,3132 7085,3143 7149,3142 7186,3144 7292,3150 7396,3166 7500,3223 7500,3275 7500,3327 7500,3380 7396,3430 7291,3452 7186,3458 7149,3460 7085,3459 7051,3470 7036,3608 7002,3739 6952,3860 6978,3886 7030,3915 7059,3934 7147,3992 7230,4058 7291,4159 7265,4204 7239,4249 7213,4294 7097,4286 6995,4253 6902,4205 6872,4190 6823,4161 6789,4151 6708,4262 6610,4359 6499,4441 6510,4475 6539,4524 6554,4554 6602,4648 6640,4746 6643,4865 6597,4891 6552,4917 6507,4943 6411,4878 6340,4798 6282,4711 6263,4681 6234,4629 6209,4604 6088,4654 5957,4688 5819,4703 5808,4737 5809,4801 5807,4838 5801,4944 5785,5048 5728,5152 5676,5152 5624,5152 5571,5152 5521,5048 5499,4943 5493,4838 5491,4801 5492,4737 5481,4703 5343,4688 5212,4654 5091,4604 5065,4630 5036,4682 5017,4711 4959,4799 4893,4882 4792,4943 4747,4917 4702,4891 4657,4865 4665,4749 4698,4647 4746,4554 4761,4524 4790,4475 4800,4441 4689,4360 4592,4262 4510,4151 4476,4162 4427,4191 4397,4206 4303,4254 4205,4292 4086,4295 4060,4249 4034,4204 4008,4159 4073,4063 4153,3992 4240,3934 4270,3915 4322,3886 4347,3861 4297,3740 4263,3609 4248,3471 4214,3460 4150,3461 4113,3459 4007,3453 3903,3437 3799,3380 3799,3328 3799,3276 3799,3223 3903,3173 4008,3151 4113,3145 4150,3143 4214,3144 4248,3133 4263,2995 4297,2864 4347,2743 4321,2717 4269,2688 4240,2669 4152,2611 4069,2545 4008,2444 4034,2399 4060,2354 4086,2309 4202,2317 4304,2350 4397,2398 4427,2413 4476,2442 4510,2452 4591,2341 4689,2244 4800,2162 4789,2128 4760,2079 4745,2049 4697,1955 4659,1857 4656,1738 4702,1712 4747,1686 4792,1660 4888,1725 4959,1805 5017,1892 5036,1922 5065,1974 5090,1999 5212,1949 5342,1915 5480,1900 5491,1866 5490,1801 5492,1765 Z M 6590,3301 C 6590,2768 6182,2360 5649,2360 5115,2360 4708,2768 4708,3301 4708,3835 5115,4242 5649,4242 6182,4242 6590,3835 6590,3301 Z"/>
     <path fill="none" stroke="rgb(0,0,0)" d="M 5492,1765 C 5498,1659 5514,1555 5571,1451 5623,1451 5675,1451 5728,1451 5778,1555 5800,1660 5806,1765 5808,1802 5807,1866 5818,1900 5956,1915 6087,1949 6208,1999 6234,1973 6263,1921 6282,1892 6340,1804 6406,1721 6507,1660 6552,1686 6597,1712 6642,1738 6634,1854 6601,1956 6553,2049 6538,2079 6509,2128 6499,2162 6610,2243 6707,2341 6789,2452 6823,2441 6872,2412 6902,2397 6996,2349 7094,2311 7213,2308 7239,2354 7265,2399 7291,2444 7226,2540 7146,2611 7059,2669 7029,2688 6977,2717 6952,2742 7002,2863 7036,2994 7051,3132 7085,3143 7149,3142 7186,3144 7292,3150 7396,3166 7500,3223 7500,3275 7500,3327 7500,3380 7396,3430 7291,3452 7186,3458 7149,3460 7085,3459 7051,3470 7036,3608 7002,3739 6952,3860 6978,3886 7030,3915 7059,3934 7147,3992 7230,4058 7291,4159 7265,4204 7239,4249 7213,4294 7097,4286 6995,4253 6902,4205 6872,4190 6823,4161 6789,4151 6708,4262 6610,4359 6499,4441 6510,4475 6539,4524 6554,4554 6602,4648 6640,4746 6643,4865 6597,4891 6552,4917 6507,4943 6411,4878 6340,4798 6282,4711 6263,4681 6234,4629 6209,4604 6088,4654 5957,4688 5819,4703 5808,4737 5809,4801 5807,4838 5801,4944 5785,5048 5728,5152 5676,5152 5624,5152 5571,5152 5521,5048 5499,4943 5493,4838 5491,4801 5492,4737 5481,4703 5343,4688 5212,4654 5091,4604 5065,4630 5036,4682 5017,4711 4959,4799 4893,4882 4792,4943 4747,4917 4702,4891 4657,4865 4665,4749 4698,4647 4746,4554 4761,4524 4790,4475 4800,4441 4689,4360 4592,4262 4510,4151 4476,4162 4427,4191 4397,4206 4303,4254 4205,4292 4086,4295 4060,4249 4034,4204 4008,4159 4073,4063 4153,3992 4240,3934 4270,3915 4322,3886 4347,3861 4297,3740 4263,3609 4248,3471 4214,3460 4150,3461 4113,3459 4007,3453 3903,3437 3799,3380 3799,3328 3799,3276 3799,3223 3903,3173 4008,3151 4113,3145 4150,3143 4214,3144 4248,3133 4263,2995 4297,2864 4347,2743 4321,2717 4269,2688 4240,2669 4152,2611 4069,2545 4008,2444 4034,2399 4060,2354 4086,2309 4202,2317 4304,2350 4397,2398 4427,2413 4476,2442 4510,2452 4591,2341 4689,2244 4800,2162 4789,2128 4760,2079 4745,2049 4697,1955 4659,1857 4656,1738 4702,1712 4747,1686 4792,1660 4888,1725 4959,1805 5017,1892 5036,1922 5065,1974 5090,1999 5212,1949 5342,1915 5480,1900 5491,1866 5490,1801 5492,1765"/>
     <path fill="none" stroke="rgb(0,0,0)" d="M 6590,3301 C 6590,2768 6182,2360 5649,2360 5115,2360 4708,2768 4708,3301 4708,3835 5115,4242 5649,4242 6182,4242 6590,3835 6590,3301"/>
    </g>
   </g>
   <g class="com.sun.star.drawing.PolyPolygonShape">
    <g>
     <path fill="rgb(0,0,0)" stroke="none" d="M 2381,3035 L 2720,3035 2792,2231 2791,2231 2791,2230 2794,2204 2796,2191 2796,2191 2798,2178 2806,2128 2817,2076 2831,2026 2846,1976 2865,1927 2886,1878 2909,1831 2935,1784 2963,1739 2994,1694 3025,1651 3060,1609 3095,1570 3134,1532 3173,1495 3214,1461 3257,1429 3301,1398 3347,1370 3394,1344 3442,1321 3491,1299 3540,1280 3591,1263 3641,1249 3692,1238 3744,1229 3796,1222 3847,1218 3899,1217 3854,1723 3828,1724 3802,1726 3776,1729 3750,1733 3725,1739 3699,1747 3675,1755 3649,1765 3626,1775 3602,1787 3578,1800 3555,1815 3533,1830 3512,1846 3491,1863 3471,1881 3452,1900 3435,1920 3417,1940 3401,1962 3386,1984 3372,2007 3359,2030 3347,2054 3337,2078 3327,2103 3319,2128 3313,2153 3307,2178 3303,2205 3229,3035 3568,3035 3523,3541 3184,3541 3108,4387 3102,4438 3094,4489 3082,4540 3069,4591 3053,4641 3034,4690 3013,4739 2990,4786 2964,4833 2936,4878 2906,4923 2874,4966 2840,5007 2804,5047 2766,5085 2726,5121 2685,5156 2642,5188 2598,5218 2552,5246 2505,5272 2457,5296 2408,5318 2359,5337 2309,5354 2258,5368 2207,5379 2155,5388 2103,5395 2052,5398 2000,5400 2045,4893 2071,4892 2097,4891 2123,4887 2149,4883 2174,4877 2200,4870 2224,4862 2250,4852 2274,4842 2298,4830 2321,4816 2344,4802 2366,4787 2388,4771 2408,4754 2428,4735 2447,4717 2465,4697 2482,4676 2498,4654 2514,4632 2528,4610 2540,4587 2552,4562 2562,4539 2572,4513 2580,4489 2586,4464 2592,4438 2596,4412 2599,4387 2599,4386 2599,4386 2675,3541 2336,3541 2381,3035 Z"/>
     <rect fill="none" stroke="none" x="1999" y="1216" width="1902" height="4185"/>
    </g>
   </g>
   <g class="com.sun.star.drawing.PolyPolygonShape">
    <g>
     <path fill="rgb(0,0,0)" stroke="none" d="M 7782,3035 L 8121,3035 8193,2231 8192,2231 8192,2230 8195,2204 8197,2191 8197,2191 8199,2178 8207,2128 8218,2076 8232,2026 8247,1976 8266,1927 8287,1878 8310,1831 8336,1784 8364,1739 8395,1694 8426,1651 8461,1609 8496,1570 8535,1532 8574,1495 8615,1461 8658,1429 8702,1398 8748,1370 8795,1344 8843,1321 8892,1299 8941,1280 8992,1263 9042,1249 9093,1238 9145,1229 9197,1222 9248,1218 9300,1217 9255,1723 9229,1724 9203,1726 9177,1729 9151,1733 9126,1739 9100,1747 9076,1755 9050,1765 9027,1775 9003,1787 8979,1800 8956,1815 8934,1830 8913,1846 8892,1863 8872,1881 8853,1900 8836,1920 8818,1940 8802,1962 8787,1984 8773,2007 8760,2030 8748,2054 8738,2078 8728,2103 8720,2128 8714,2153 8708,2178 8704,2205 8630,3035 8969,3035 8924,3541 8585,3541 8509,4387 8503,4438 8495,4489 8483,4540 8470,4591 8454,4641 8435,4690 8414,4739 8391,4786 8365,4833 8337,4878 8307,4923 8275,4966 8241,5007 8205,5047 8167,5085 8127,5121 8086,5156 8043,5188 7999,5218 7953,5246 7906,5272 7858,5296 7809,5318 7760,5337 7710,5354 7659,5368 7608,5379 7556,5388 7504,5395 7453,5398 7401,5400 7446,4893 7472,4892 7498,4891 7524,4887 7550,4883 7575,4877 7601,4870 7625,4862 7651,4852 7675,4842 7699,4830 7722,4816 7745,4802 7767,4787 7789,4771 7809,4754 7829,4735 7848,4717 7866,4697 7883,4676 7899,4654 7915,4632 7929,4610 7941,4587 7953,4562 7963,4539 7973,4513 7981,4489 7987,4464 7993,4438 7997,4412 8000,4387 8000,4386 8000,4386 8076,3541 7737,3541 7782,3035 Z"/>
     <rect fill="none" stroke="none" x="7400" y="1216" width="1902" height="4185"/>
    </g>
   </g>
  </g>
 </g>
</svg>